<svg xmlns="http://www.w3.org/2000/svg" xmlns:svg="http://www.w3.org/2000/svg" xmlns:xlink="http://www.w3.org/1999/xlink" id="svg2" width="512" height="512" version="1.0"><defs id="defs4"><linearGradient id="linearGradient4394"><stop style="stop-color:#366b04;stop-opacity:1" id="stop4396" offset="0"/><stop style="stop-color:#366b04;stop-opacity:0" id="stop4398" offset="1"/></linearGradient><linearGradient id="linearGradient3814"><stop style="stop-color:#336404;stop-opacity:1" id="stop3816" offset="0"/><stop style="stop-color:#336404;stop-opacity:0" id="stop3818" offset="1"/></linearGradient><linearGradient id="linearGradient3308"><stop id="stop3310" offset="0" style="stop-color:#336404;stop-opacity:1"/><stop id="stop3312" offset="1" style="stop-color:#4e9a06;stop-opacity:1"/></linearGradient><linearGradient id="linearGradient3302"><stop id="stop3304" offset="0" style="stop-color:#336404;stop-opacity:1"/><stop id="stop3306" offset="1" style="stop-color:#4e9a06;stop-opacity:1"/></linearGradient><linearGradient id="linearGradient3294"><stop id="stop3296" offset="0" style="stop-color:#4e9a06;stop-opacity:1"/><stop id="stop3298" offset="1" style="stop-color:#336404;stop-opacity:1"/></linearGradient><linearGradient id="linearGradient3284"><stop id="stop3286" offset="0" style="stop-color:#336404;stop-opacity:1"/><stop id="stop3288" offset="1" style="stop-color:#4e9a06;stop-opacity:1"/></linearGradient><linearGradient id="linearGradient3228"><stop style="stop-color:#73d216;stop-opacity:1" id="stop3230" offset="0"/><stop style="stop-color:#4e9a06;stop-opacity:1" id="stop3232" offset="1"/></linearGradient><linearGradient id="linearGradient3952" x1="192" x2="192" y1="682.362" y2="583.338" gradientTransform="matrix(0.9508654,0,0,1,11.791318,-88)" gradientUnits="userSpaceOnUse" xlink:href="#linearGradient3814"/><linearGradient id="linearGradient3954" x1="160.176" x2="165.801" y1="481.5" y2="482.066" gradientTransform="matrix(-1.1843407,0,0,0.6169325,340.02958,245.98133)" gradientUnits="userSpaceOnUse" xlink:href="#linearGradient3302"/><linearGradient id="linearGradient3956" x1="168.934" x2="156.798" y1="531.359" y2="467.655" gradientTransform="matrix(-1.0322783,0,0,0.9008626,333.30197,82.456475)" gradientUnits="userSpaceOnUse" xlink:href="#linearGradient3284"/><linearGradient id="linearGradient3958" x1="160.176" x2="165.801" y1="481.5" y2="482.066" gradientTransform="matrix(-1.1843407,0,0,0.6169325,355.23238,245.98133)" gradientUnits="userSpaceOnUse" xlink:href="#linearGradient3308"/><linearGradient id="linearGradient3960" x1="160.176" x2="165.801" y1="481.5" y2="482.066" gradientTransform="matrix(0.8133078,0.05190875,-0.05190875,0.8133078,45.170479,124.65095)" gradientUnits="userSpaceOnUse" xlink:href="#linearGradient3294"/><linearGradient id="linearGradient3962" x1="168.934" x2="156.798" y1="531.359" y2="467.655" gradientTransform="matrix(1.0322783,0,0,0.7213329,-16.733242,185.85364)" gradientUnits="userSpaceOnUse" xlink:href="#linearGradient3284"/><linearGradient id="linearGradient3964" x1="160.933" x2="165.801" y1="480.742" y2="482.066" gradientTransform="matrix(-1,0,0,1,318.3432,25.359862)" gradientUnits="userSpaceOnUse" xlink:href="#linearGradient3228"/><linearGradient id="linearGradient3966" x1="156.798" x2="163.3" y1="479.179" y2="484.387" gradientTransform="matrix(0.9086777,0,0,0.7213329,16.376582,185.85365)" gradientUnits="userSpaceOnUse" xlink:href="#linearGradient3228"/><linearGradient id="linearGradient3968" x1="160.176" x2="165.801" y1="481.5" y2="482.066" gradientTransform="translate(-17.160804,25.359861)" gradientUnits="userSpaceOnUse" xlink:href="#linearGradient3228"/><linearGradient id="linearGradient3970" x1="160.176" x2="165.801" y1="481.5" y2="482.066" gradientTransform="matrix(-1,0,0,1,332.48534,25.359858)" gradientUnits="userSpaceOnUse" xlink:href="#linearGradient3228"/><linearGradient id="linearGradient3972" x1="160.176" x2="165.801" y1="481.5" y2="482.066" gradientTransform="matrix(-1.1843407,0,0,0.6169325,344.27222,245.98133)" gradientUnits="userSpaceOnUse" xlink:href="#linearGradient3228"/><linearGradient id="linearGradient3974" x1="160.176" x2="165.801" y1="481.5" y2="482.066" gradientTransform="matrix(-1.1843407,0,0,0.6169325,353.81816,245.98133)" gradientUnits="userSpaceOnUse" xlink:href="#linearGradient3228"/><linearGradient id="linearGradient3976" x1="160.176" x2="165.801" y1="481.5" y2="482.066" gradientTransform="matrix(-1.1843407,0,0,0.6169325,374.83648,245.98133)" gradientUnits="userSpaceOnUse" xlink:href="#linearGradient3302"/><linearGradient id="linearGradient3978" x1="168.934" x2="156.798" y1="531.359" y2="467.655" gradientTransform="matrix(-1.0322783,0,0,0.9008626,363.63478,82.456474)" gradientUnits="userSpaceOnUse" xlink:href="#linearGradient3284"/><linearGradient id="linearGradient3980" x1="160.176" x2="165.801" y1="481.5" y2="482.066" gradientTransform="matrix(-1.1843407,0,0,0.6169325,379.89475,245.98133)" gradientUnits="userSpaceOnUse" xlink:href="#linearGradient3308"/><linearGradient id="linearGradient3982" x1="160.176" x2="165.801" y1="481.5" y2="482.066" gradientTransform="matrix(0.8133078,0.05190875,-0.05190875,0.8133078,70.682731,124.65095)" gradientUnits="userSpaceOnUse" xlink:href="#linearGradient3294"/><linearGradient id="linearGradient3984" x1="168.934" x2="156.798" y1="531.359" y2="467.655" gradientTransform="matrix(1.0322783,0,0,0.7213329,11.729282,185.85364)" gradientUnits="userSpaceOnUse" xlink:href="#linearGradient3284"/><linearGradient id="linearGradient3986" x1="160.933" x2="165.801" y1="480.742" y2="482.066" gradientTransform="matrix(-1,0,0,1,358.50084,25.359863)" gradientUnits="userSpaceOnUse" xlink:href="#linearGradient3228"/><linearGradient id="linearGradient3988" x1="156.798" x2="163.3" y1="479.179" y2="484.387" gradientTransform="matrix(0.9086777,0,0,0.7213329,43.327781,185.85365)" gradientUnits="userSpaceOnUse" xlink:href="#linearGradient3228"/><linearGradient id="linearGradient3990" x1="160.176" x2="165.801" y1="481.5" y2="482.066" gradientTransform="matrix(-1,0,0,0.9135954,339.51444,75.123155)" gradientUnits="userSpaceOnUse" xlink:href="#linearGradient3228"/><linearGradient id="linearGradient3992" x1="160.176" x2="165.801" y1="481.5" y2="482.066" gradientTransform="matrix(-1,0,0,1,348.1012,25.359854)" gradientUnits="userSpaceOnUse" xlink:href="#linearGradient3228"/><linearGradient id="linearGradient3994" x1="160.176" x2="165.801" y1="481.5" y2="482.066" gradientTransform="matrix(-1.1843407,0,0,0.6169325,385.22268,245.98133)" gradientUnits="userSpaceOnUse" xlink:href="#linearGradient3228"/><linearGradient id="linearGradient3996" x1="160.176" x2="165.801" y1="481.5" y2="482.066" gradientTransform="matrix(1.1843407,0,0,0.6169325,30.34068,245.98133)" gradientUnits="userSpaceOnUse" xlink:href="#linearGradient3302"/><linearGradient id="linearGradient3998" x1="168.934" x2="156.798" y1="531.359" y2="467.655" gradientTransform="matrix(1.0322783,0,0,0.9008626,71.06829,82.456475)" gradientUnits="userSpaceOnUse" xlink:href="#linearGradient3284"/><linearGradient id="linearGradient4000" x1="160.176" x2="165.801" y1="481.5" y2="482.066" gradientTransform="matrix(1.1843407,0,0,0.6169325,15.13788,245.98133)" gradientUnits="userSpaceOnUse" xlink:href="#linearGradient3308"/><linearGradient id="linearGradient4002" x1="160.176" x2="165.801" y1="481.5" y2="482.066" gradientTransform="matrix(-0.8133078,0.05190875,0.05190875,0.8133078,325.19978,124.65095)" gradientUnits="userSpaceOnUse" xlink:href="#linearGradient3294"/><linearGradient id="linearGradient4004" x1="168.934" x2="156.798" y1="531.359" y2="467.655" gradientTransform="matrix(-1.0322783,0,0,0.7213329,387.1035,185.85364)" gradientUnits="userSpaceOnUse" xlink:href="#linearGradient3284"/><linearGradient id="linearGradient4006" x1="160.933" x2="165.801" y1="480.742" y2="482.066" gradientTransform="translate(52.02706,25.359865)" gradientUnits="userSpaceOnUse" xlink:href="#linearGradient3228"/><linearGradient id="linearGradient4008" x1="156.798" x2="163.3" y1="479.179" y2="484.387" gradientTransform="matrix(-0.9086777,0,0,0.7213329,387.49368,185.85365)" gradientUnits="userSpaceOnUse" xlink:href="#linearGradient3228"/><linearGradient id="linearGradient4010" x1="160.176" x2="165.801" y1="481.5" y2="482.066" gradientTransform="matrix(-1,0,0,1,373.03106,25.359861)" gradientUnits="userSpaceOnUse" xlink:href="#linearGradient3228"/><linearGradient id="linearGradient4012" x1="160.176" x2="165.801" y1="481.5" y2="482.066" gradientTransform="translate(86.38492,25.359858)" gradientUnits="userSpaceOnUse" xlink:href="#linearGradient3228"/><linearGradient id="linearGradient4014" x1="160.176" x2="165.801" y1="481.5" y2="482.066" gradientTransform="matrix(1.1843407,0,0,0.6169325,26.09804,245.98133)" gradientUnits="userSpaceOnUse" xlink:href="#linearGradient3228"/><linearGradient id="linearGradient4016" x1="160.176" x2="165.801" y1="481.5" y2="482.066" gradientTransform="matrix(1.1843407,0,0,0.6169325,16.5521,245.98133)" gradientUnits="userSpaceOnUse" xlink:href="#linearGradient3228"/><linearGradient id="linearGradient4018" x1="160.176" x2="165.801" y1="481.5" y2="482.066" gradientTransform="matrix(1.1843407,0,0,0.6169325,44.03378,245.98133)" gradientUnits="userSpaceOnUse" xlink:href="#linearGradient3302"/><linearGradient id="linearGradient4020" x1="168.934" x2="156.798" y1="531.359" y2="467.655" gradientTransform="matrix(1.0322783,0,0,0.9008626,55.23548,82.456474)" gradientUnits="userSpaceOnUse" xlink:href="#linearGradient3284"/><linearGradient id="linearGradient4022" x1="160.176" x2="165.801" y1="481.5" y2="482.066" gradientTransform="matrix(1.1843407,0,0,0.6169325,38.97551,245.98133)" gradientUnits="userSpaceOnUse" xlink:href="#linearGradient3308"/><linearGradient id="linearGradient4024" x1="160.176" x2="165.801" y1="481.5" y2="482.066" gradientTransform="matrix(-0.8133078,0.05190875,0.05190875,0.8133078,349.68753,124.65095)" gradientUnits="userSpaceOnUse" xlink:href="#linearGradient3294"/><linearGradient id="linearGradient4026" x1="160.933" x2="165.801" y1="480.742" y2="482.066" gradientTransform="translate(60.36942,25.359863)" gradientUnits="userSpaceOnUse" xlink:href="#linearGradient3228"/><linearGradient id="linearGradient4028" x1="156.798" x2="163.3" y1="479.179" y2="484.387" gradientTransform="matrix(-0.9086777,0,0,0.7213329,375.54248,185.85365)" gradientUnits="userSpaceOnUse" xlink:href="#linearGradient3228"/><linearGradient id="linearGradient4030" x1="160.176" x2="165.801" y1="481.5" y2="482.066" gradientTransform="matrix(1,0,0,0.9135954,79.35582,75.123155)" gradientUnits="userSpaceOnUse" xlink:href="#linearGradient3228"/><linearGradient id="linearGradient4032" x1="160.176" x2="165.801" y1="481.5" y2="482.066" gradientTransform="translate(70.76906,25.359854)" gradientUnits="userSpaceOnUse" xlink:href="#linearGradient3228"/><linearGradient id="linearGradient4923" x1="169.5" x2="169.5" y1="320.362" y2="290.756" gradientTransform="matrix(1.5657493,0,0,2.5017858,0.51001865,-549.35556)" gradientUnits="userSpaceOnUse" xlink:href="#linearGradient4394"/></defs><metadata id="metadata7"/><g id="layer1" transform="translate(-1.2928932,273.6378)"><g id="g3866" transform="matrix(-4.7081792,0,0,3.5750622,1178.5971,-1911.2994)"><path style="fill:url(#linearGradient3952);fill-opacity:1;fill-rule:nonzero;stroke:none;stroke-width:2;marker:none;visibility:visible;display:inline;overflow:visible;enable-background:accumulate" id="path3868" d="m 188.94944,515.90625 c -1.6767,2.7475 -6.88234,21.47566 -8.73608,21.15625 -1.87124,0.0951 -2.03736,-4.23671 -2.2583,-8.25 -0.18753,-3.40601 -0.40978,-6.58655 -1.78288,-6.59375 -1.70315,-0.009 -8.62113,11.13524 -11.67782,10.375 -0.90655,-0.22547 -0.0814,-6.67533 -0.416,-8.5625 l -3.71432,18.53125 -6.7452,-16.15625 -6.03206,7.09375 -4.36803,-4.125 0,70.375 48.93985,0 8.5578,0 48.93985,0 0,-65.34375 -4.36803,3.84375 -6.03206,-6.59375 -6.7452,15 -3.71432,-17.21875 c -0.33459,1.7521 0.49055,7.75942 -0.416,7.96875 -3.05668,0.70578 -9.97467,-9.63332 -11.67782,-9.625 -1.37309,0.007 -1.59535,2.93151 -1.78288,6.09375 -0.22094,3.72603 -0.38706,7.77576 -2.2583,7.6875 -1.85373,0.29651 -7.05938,-17.10539 -8.73608,-19.65625 -1.62008,2.14843 1.50431,7.10155 -1.01029,9.25 l -2.34745,-2.09375 -4.63547,-8.875 -5.97262,5.6875 c -2.5146,-2.31407 0.6098,-7.6547 -1.01029,-9.96875 z"/><path id="path3870" d="m 155.77474,535.59169 c 0,0 -5.80845,26.74663 -6.08563,40.58381 -0.1517,7.57328 -3.80682,24.89763 -3.80682,24.89763 l 6.34469,0.22033 c 0,0 2.39279,-29.15801 2.07002,-43.04561 -0.20815,-8.95593 1.47774,-22.65616 1.47774,-22.65616 z" style="fill:url(#linearGradient3954);fill-opacity:1;fill-rule:nonzero;stroke:none;stroke-width:2;marker:none;visibility:visible;display:inline;overflow:visible;enable-background:accumulate"/><path id="path3872" d="m 163.86462,510.81453 c 0,0 3.77706,33.59552 3.53547,53.80096 -0.13222,11.05874 -3.31804,36.35625 -3.31804,36.35625 l 5.53006,0.32172 c 0,0 2.08557,-42.57737 1.80424,-62.85643 -0.18142,-13.0777 -7.55173,-27.6225 -7.55173,-27.6225 z" style="fill:url(#linearGradient3956);fill-opacity:1;fill-rule:nonzero;stroke:none;stroke-width:2;marker:none;visibility:visible;display:inline;overflow:visible;enable-background:accumulate"/><path id="path3874" d="m 161.30534,520.79297 c 0,0 5.63153,35.73697 3.58658,55.38253 -0.78424,7.53409 -3.80682,24.89763 -3.80682,24.89763 l 6.34469,0.22033 c 0,0 2.39279,-29.15801 2.07002,-43.04561 -0.20815,-8.95593 -8.19447,-37.45488 -8.19447,-37.45488 z" style="fill:url(#linearGradient3958);fill-opacity:1;fill-rule:nonzero;stroke:none;stroke-width:2;marker:none;visibility:visible;display:inline;overflow:visible;enable-background:accumulate"/><path id="path3876" d="m 151.72723,490.4161 -3.62913,77.87536 0.51932,32.98961 -4.37555,0.0124 3.05238,-79.88129 4.43298,-30.99607 z" style="fill:url(#linearGradient3960);fill-opacity:1;fill-rule:nonzero;stroke:none;stroke-width:2;marker:none;visibility:visible;display:inline;overflow:visible;enable-background:accumulate"/><path style="fill:url(#linearGradient3962);fill-opacity:1;fill-rule:nonzero;stroke:none;stroke-width:2;marker:none;visibility:visible;display:inline;overflow:visible;enable-background:accumulate" id="path3878" d="m 157.65386,523.1889 c 0,0 -8.72681,32.55724 -8.48522,48.73601 0.13222,8.85488 3.31804,29.11094 3.31804,29.11094 l -5.53006,0.25761 c 0,0 -2.08557,-34.09228 -1.80424,-50.33 0.18142,-10.47149 12.50148,-27.77456 12.50148,-27.77456 z"/><path style="fill:url(#linearGradient3964);fill-opacity:1;fill-rule:nonzero;stroke:none;stroke-width:2;marker:none;visibility:visible;display:inline;overflow:visible;enable-background:accumulate" id="path3880" d="m 158.85571,500.50559 -3.5682,0.3089 2.3414,59.76469 -3.21429,40.35714 5.35715,0.35714 1.74782,-69.77361 -4.99433,-28.18582 2.33045,-2.82844 z"/><path id="path3882" d="m 174.68154,519.40083 c 0,0 -12.48013,36.34532 -12.26747,52.52409 0.11639,8.85487 2.92076,29.11094 2.92076,29.11094 l -4.86792,0.2576 c 0,0 -1.83585,-34.09228 -1.58821,-50.33 0.1597,-10.47149 15.80284,-31.56263 15.80284,-31.56263 z" style="fill:url(#linearGradient3966);fill-opacity:1;fill-rule:nonzero;stroke:none;stroke-width:2;marker:none;visibility:visible;display:inline;overflow:visible;enable-background:accumulate"/><path style="fill:url(#linearGradient3968);fill-opacity:1;fill-rule:nonzero;stroke:none;stroke-width:2;marker:none;visibility:visible;display:inline;overflow:visible;enable-background:accumulate" id="path3884" d="m 147.12492,458.07918 -3.57143,102.5 3.21429,40.35714 -5.35715,0.35714 -2.50543,-98.05788 8.21972,-45.1564 z"/><path id="path3886" d="m 167.44201,486.36345 4.32904,74.21573 -3.21429,40.35714 5.35715,0.35714 1.74782,-69.77361 -8.21972,-45.1564 z" style="fill:url(#linearGradient3970);fill-opacity:1;fill-rule:nonzero;stroke:none;stroke-width:2;marker:none;visibility:visible;display:inline;overflow:visible;enable-background:accumulate"/><path style="fill:url(#linearGradient3972);fill-opacity:1;fill-rule:nonzero;stroke:none;stroke-width:2;marker:none;visibility:visible;display:inline;overflow:visible;enable-background:accumulate" id="path3888" d="m 147.28946,527.10641 c 0,0 6.91947,35.23191 6.64229,49.06909 -0.1517,7.57328 -3.80682,24.89763 -3.80682,24.89763 l 6.34469,0.22033 c 0,0 2.39279,-29.15801 2.07002,-43.04561 -0.20815,-8.95593 -11.25018,-31.14144 -11.25018,-31.14144 z"/><path id="path3890" d="m 156.8354,527.10641 c 0,0 6.91947,35.23191 6.64229,49.06909 -0.1517,7.57328 -3.80682,24.89763 -3.80682,24.89763 l 6.34469,0.22033 c 0,0 2.39279,-29.15801 2.07002,-43.04561 -0.20815,-8.95593 -11.25018,-31.14144 -11.25018,-31.14144 z" style="fill:url(#linearGradient3974);fill-opacity:1;fill-rule:nonzero;stroke:none;stroke-width:2;marker:none;visibility:visible;display:inline;overflow:visible;enable-background:accumulate"/><path style="fill:url(#linearGradient3976);fill-opacity:1;fill-rule:nonzero;stroke:none;stroke-width:2;marker:none;visibility:visible;display:inline;overflow:visible;enable-background:accumulate" id="path3892" d="m 190.58165,535.59169 c 0,0 -5.80845,26.74663 -6.08563,40.58381 -0.1517,7.57328 -3.80682,24.89763 -3.80682,24.89763 l 6.34469,0.22033 c 0,0 2.39279,-29.15801 2.07002,-43.04561 -0.20815,-8.95593 1.47774,-22.65616 1.47774,-22.65616 z"/><path style="fill:url(#linearGradient3978);fill-opacity:1;fill-rule:nonzero;stroke:none;stroke-width:2;marker:none;visibility:visible;display:inline;overflow:visible;enable-background:accumulate" id="path3894" d="m 194.19743,510.81453 c 0,0 3.77706,33.59552 3.53547,53.80096 -0.13222,11.05874 -3.31804,36.35625 -3.31804,36.35625 l 5.53006,0.32172 c 0,0 2.08557,-42.57737 1.80424,-62.85643 -0.18142,-13.0777 -7.55173,-27.6225 -7.55173,-27.6225 z"/><path style="fill:url(#linearGradient3980);fill-opacity:1;fill-rule:nonzero;stroke:none;stroke-width:2;marker:none;visibility:visible;display:inline;overflow:visible;enable-background:accumulate" id="path3896" d="m 186.1445,530.33891 c 0,0 5.45475,26.19103 3.4098,45.83659 -0.78424,7.53409 -3.80682,24.89763 -3.80682,24.89763 l 6.34469,0.22033 c 0,0 2.39279,-29.15801 2.07002,-43.04561 -0.20815,-8.95593 -8.01769,-27.90894 -8.01769,-27.90894 z"/><path style="fill:url(#linearGradient3982);fill-opacity:1;fill-rule:nonzero;stroke:none;stroke-width:2;marker:none;visibility:visible;display:inline;overflow:visible;enable-background:accumulate" id="path3898" d="m 177.23948,490.4161 -3.62913,77.87536 0.51932,32.98961 -4.37555,0.0124 3.05238,-79.88129 4.43298,-30.99607 z"/><path id="path3900" d="m 186.11638,523.1889 c 0,0 -8.72681,32.55724 -8.48522,48.73601 0.13222,8.85488 3.31804,29.11094 3.31804,29.11094 l -5.53006,0.25761 c 0,0 -2.08557,-34.09228 -1.80424,-50.33 0.18142,-10.47149 12.50148,-27.77456 12.50148,-27.77456 z" style="fill:url(#linearGradient3984);fill-opacity:1;fill-rule:nonzero;stroke:none;stroke-width:2;marker:none;visibility:visible;display:inline;overflow:visible;enable-background:accumulate"/><path id="path3902" d="m 192.47261,500.68237 2.97254,0.13212 2.3414,59.76469 -3.21429,40.35714 5.35715,0.35714 1.74782,-69.77361 -5.17111,-32.42846 -4.03351,1.59098 z" style="fill:url(#linearGradient3986);fill-opacity:1;fill-rule:nonzero;stroke:none;stroke-width:2;marker:none;visibility:visible;display:inline;overflow:visible;enable-background:accumulate"/><path style="fill:url(#linearGradient3988);fill-opacity:1;fill-rule:nonzero;stroke:none;stroke-width:2;marker:none;visibility:visible;display:inline;overflow:visible;enable-background:accumulate" id="path3904" d="m 201.63274,519.40083 c 0,0 -12.48013,36.34532 -12.26747,52.52409 0.11639,8.85487 2.92076,29.11094 2.92076,29.11094 l -4.86792,0.2576 c 0,0 -1.83585,-34.09228 -1.58821,-50.33 0.1597,-10.47149 15.80284,-31.56263 15.80284,-31.56263 z"/><path id="path3906" d="m 175.22871,470.45355 3.57143,93.64353 -3.21429,36.8701 5.35715,0.32628 2.50543,-89.58523 -8.21972,-41.25468 z" style="fill:url(#linearGradient3990);fill-opacity:1;fill-rule:nonzero;stroke:none;stroke-width:2;marker:none;visibility:visible;display:inline;overflow:visible;enable-background:accumulate"/><path style="fill:url(#linearGradient3992);fill-opacity:1;fill-rule:nonzero;stroke:none;stroke-width:2;marker:none;visibility:visible;display:inline;overflow:visible;enable-background:accumulate" id="path3908" d="m 183.05787,486.36345 4.32904,74.21573 -3.21429,40.35714 5.35715,0.35714 1.74782,-69.77361 -8.21972,-45.1564 z"/><path id="path3910" d="m 188.23993,527.10641 c 0,0 6.91947,35.23191 6.64229,49.06909 -0.1517,7.57328 -3.80682,24.89763 -3.80682,24.89763 l 6.34469,0.22033 c 0,0 2.39279,-29.15801 2.07002,-43.04561 -0.20815,-8.95593 -11.25018,-31.14144 -11.25018,-31.14144 z" style="fill:url(#linearGradient3994);fill-opacity:1;fill-rule:nonzero;stroke:none;stroke-width:2;marker:none;visibility:visible;display:inline;overflow:visible;enable-background:accumulate"/><path style="fill:#4d9805;fill-opacity:1;fill-rule:nonzero;stroke:none;stroke-width:2;marker:none;visibility:visible;display:inline;overflow:visible;enable-background:accumulate" id="path3912" d="m 191.18493,527.10641 c 0,0 6.91947,35.23191 6.64229,49.06909 -0.1517,7.57328 -3.80682,24.89763 -3.80682,24.89763 l 6.34469,0.22033 c 0,0 2.39279,-29.15801 2.07002,-43.04561 -0.20815,-8.95593 -11.25018,-31.14144 -11.25018,-31.14144 z"/><path style="fill:url(#linearGradient3996);fill-opacity:1;fill-rule:nonzero;stroke:none;stroke-width:2;marker:none;visibility:visible;display:inline;overflow:visible;enable-background:accumulate" id="path3914" d="m 214.59552,535.59169 c 0,0 5.80845,26.74663 6.08563,40.58381 0.1517,7.57328 3.80682,24.89763 3.80682,24.89763 l -6.34469,0.22033 c 0,0 -2.39279,-29.15801 -2.07002,-43.04561 0.20815,-8.95593 -1.47774,-22.65616 -1.47774,-22.65616 z"/><path style="fill:url(#linearGradient3998);fill-opacity:1;fill-rule:nonzero;stroke:none;stroke-width:2;marker:none;visibility:visible;display:inline;overflow:visible;enable-background:accumulate" id="path3916" d="m 240.50564,510.81453 c 0,0 -3.77706,33.59552 -3.53547,53.80096 0.13222,11.05874 3.31804,36.35625 3.31804,36.35625 l -5.53006,0.32172 c 0,0 -2.08557,-42.57737 -1.80424,-62.85643 0.18142,-13.0777 7.55173,-27.6225 7.55173,-27.6225 z"/><path style="fill:url(#linearGradient4000);fill-opacity:1;fill-rule:nonzero;stroke:none;stroke-width:2;marker:none;visibility:visible;display:inline;overflow:visible;enable-background:accumulate" id="path3918" d="m 209.06492,520.79297 c 0,0 -5.63153,35.73697 -3.58658,55.38253 0.78424,7.53409 3.80682,24.89763 3.80682,24.89763 l -6.34469,0.22033 c 0,0 -2.39279,-29.15801 -2.07002,-43.04561 0.20815,-8.95593 8.19447,-37.45488 8.19447,-37.45488 z"/><path style="fill:url(#linearGradient4002);fill-opacity:1;fill-rule:nonzero;stroke:none;stroke-width:2;marker:none;visibility:visible;display:inline;overflow:visible;enable-background:accumulate" id="path3920" d="m 218.64303,490.4161 3.62913,77.87536 -0.51932,32.98961 4.37555,0.0124 -3.05238,-79.88129 -4.43298,-30.99607 z"/><path id="path3922" d="m 212.7164,523.1889 c 0,0 8.72681,32.55724 8.48522,48.73601 -0.13222,8.85488 -3.31804,29.11094 -3.31804,29.11094 l 5.53006,0.25761 c 0,0 2.08557,-34.09228 1.80424,-50.33 C 225.03646,540.49197 212.7164,523.1889 212.7164,523.1889 z" style="fill:url(#linearGradient4004);fill-opacity:1;fill-rule:nonzero;stroke:none;stroke-width:2;marker:none;visibility:visible;display:inline;overflow:visible;enable-background:accumulate"/><path id="path3924" d="m 211.51455,500.50559 3.5682,0.3089 -2.3414,59.76469 3.21429,40.35714 -5.35715,0.35714 -1.74782,-69.77361 4.99433,-28.18582 -2.33045,-2.82844 z" style="fill:url(#linearGradient4006);fill-opacity:1;fill-rule:nonzero;stroke:none;stroke-width:2;marker:none;visibility:visible;display:inline;overflow:visible;enable-background:accumulate"/><path style="fill:url(#linearGradient4008);fill-opacity:1;fill-rule:nonzero;stroke:none;stroke-width:2;marker:none;visibility:visible;display:inline;overflow:visible;enable-background:accumulate" id="path3926" d="m 229.18872,519.40083 c 0,0 12.48013,36.34532 12.26747,52.52409 -0.11639,8.85487 -2.92076,29.11094 -2.92076,29.11094 l 4.86792,0.2576 c 0,0 1.83585,-34.09228 1.58821,-50.33 -0.1597,-10.47149 -15.80284,-31.56263 -15.80284,-31.56263 z"/><path id="path3928" d="m 208.74534,458.07918 3.57143,102.5 -3.21429,40.35714 5.35715,0.35714 2.50543,-98.05788 -8.21972,-45.1564 z" style="fill:url(#linearGradient4010);fill-opacity:1;fill-rule:nonzero;stroke:none;stroke-width:2;marker:none;visibility:visible;display:inline;overflow:visible;enable-background:accumulate"/><path style="fill:url(#linearGradient4012);fill-opacity:1;fill-rule:nonzero;stroke:none;stroke-width:2;marker:none;visibility:visible;display:inline;overflow:visible;enable-background:accumulate" id="path3930" d="m 251.42825,486.36345 -4.32904,74.21573 3.21429,40.35714 -5.35715,0.35714 -1.74782,-69.77361 8.21972,-45.1564 z"/><path id="path3932" d="m 223.0808,527.10641 c 0,0 -6.91947,35.23191 -6.64229,49.06909 0.1517,7.57328 3.80682,24.89763 3.80682,24.89763 l -6.34469,0.22033 c 0,0 -2.39279,-29.15801 -2.07002,-43.04561 0.20815,-8.95593 11.25018,-31.14144 11.25018,-31.14144 z" style="fill:url(#linearGradient4014);fill-opacity:1;fill-rule:nonzero;stroke:none;stroke-width:2;marker:none;visibility:visible;display:inline;overflow:visible;enable-background:accumulate"/><path style="fill:url(#linearGradient4016);fill-opacity:1;fill-rule:nonzero;stroke:none;stroke-width:2;marker:none;visibility:visible;display:inline;overflow:visible;enable-background:accumulate" id="path3934" d="m 213.53486,527.10641 c 0,0 -6.91947,35.23191 -6.64229,49.06909 0.1517,7.57328 3.80682,24.89763 3.80682,24.89763 l -6.34469,0.22033 c 0,0 -2.39279,-29.15801 -2.07002,-43.04561 0.20815,-8.95593 11.25018,-31.14144 11.25018,-31.14144 z"/><path id="path3936" d="m 228.28861,535.59169 c 0,0 5.80845,26.74663 6.08563,40.58381 0.1517,7.57328 3.80682,24.89763 3.80682,24.89763 l -6.34469,0.22033 c 0,0 -2.39279,-29.15801 -2.07002,-43.04561 0.20815,-8.95593 -1.47774,-22.65616 -1.47774,-22.65616 z" style="fill:url(#linearGradient4018);fill-opacity:1;fill-rule:nonzero;stroke:none;stroke-width:2;marker:none;visibility:visible;display:inline;overflow:visible;enable-background:accumulate"/><path id="path3938" d="m 224.67283,510.81453 c 0,0 -3.77706,33.59552 -3.53547,53.80096 0.13222,11.05874 3.31804,36.35625 3.31804,36.35625 l -5.53006,0.32172 c 0,0 -2.08557,-42.57737 -1.80424,-62.85643 0.18142,-13.0777 7.55173,-27.6225 7.55173,-27.6225 z" style="fill:url(#linearGradient4020);fill-opacity:1;fill-rule:nonzero;stroke:none;stroke-width:2;marker:none;visibility:visible;display:inline;overflow:visible;enable-background:accumulate"/><path id="path3940" d="m 232.72576,530.33891 c 0,0 -5.45475,26.19103 -3.4098,45.83659 0.78424,7.53409 3.80682,24.89763 3.80682,24.89763 l -6.34469,0.22033 c 0,0 -2.39279,-29.15801 -2.07002,-43.04561 0.20815,-8.95593 8.01769,-27.90894 8.01769,-27.90894 z" style="fill:url(#linearGradient4022);fill-opacity:1;fill-rule:nonzero;stroke:none;stroke-width:2;marker:none;visibility:visible;display:inline;overflow:visible;enable-background:accumulate"/><path id="path3942" d="m 243.13078,490.4161 3.62913,77.87536 -0.51932,32.98961 4.37555,0.0124 -3.05238,-79.88129 -4.43298,-30.99607 z" style="fill:url(#linearGradient4024);fill-opacity:1;fill-rule:nonzero;stroke:none;stroke-width:2;marker:none;visibility:visible;display:inline;overflow:visible;enable-background:accumulate"/><path style="fill:url(#linearGradient4026);fill-opacity:1;fill-rule:nonzero;stroke:none;stroke-width:2;marker:none;visibility:visible;display:inline;overflow:visible;enable-background:accumulate" id="path3944" d="m 226.39765,500.68237 -2.97254,0.13212 -2.3414,59.76469 3.21429,40.35714 -5.35715,0.35714 -1.74782,-69.77361 5.17111,-32.42846 4.03351,1.59098 z"/><path id="path3946" d="m 217.23752,519.40083 c 0,0 12.48013,36.34532 12.26747,52.52409 -0.11639,8.85487 -2.92076,29.11094 -2.92076,29.11094 l 4.86792,0.2576 c 0,0 1.83585,-34.09228 1.58821,-50.33 -0.1597,-10.47149 -15.80284,-31.56263 -15.80284,-31.56263 z" style="fill:url(#linearGradient4028);fill-opacity:1;fill-rule:nonzero;stroke:none;stroke-width:2;marker:none;visibility:visible;display:inline;overflow:visible;enable-background:accumulate"/><path style="fill:url(#linearGradient4030);fill-opacity:1;fill-rule:nonzero;stroke:none;stroke-width:2;marker:none;visibility:visible;display:inline;overflow:visible;enable-background:accumulate" id="path3948" d="m 243.64155,470.45355 -3.57143,93.64353 3.21429,36.8701 -5.35715,0.32628 -2.50543,-89.58523 8.21972,-41.25468 z"/><path id="path3950" d="m 235.81239,486.36345 -4.32904,74.21573 3.21429,40.35714 -5.35715,0.35714 -1.74782,-69.77361 8.21972,-45.1564 z" style="fill:url(#linearGradient4032);fill-opacity:1;fill-rule:nonzero;stroke:none;stroke-width:2;marker:none;visibility:visible;display:inline;overflow:visible;enable-background:accumulate"/></g><rect style="fill:url(#linearGradient4923);fill-opacity:1;fill-rule:nonzero;stroke:none;stroke-width:2;marker:none;visibility:visible;display:inline;overflow:visible;enable-background:accumulate" id="rect4392" width="512" height="60.043" x="1.293" y="178.319"/></g></svg>